<svg width="143" height="72" viewBox="0 0 143 72" fill="none" xmlns="http://www.w3.org/2000/svg">
<mask id="path-1-inside-1_6_19" fill="white">
<path fill-rule="evenodd" clip-rule="evenodd" d="M135.904 39.3054C138.164 36.5349 140.329 33.8803 142.5 31.521C135.318 30.7309 126.164 23.5048 116.936 16.2211C108.155 9.28968 99.3076 2.30614 92.0318 0.767535C84.7559 -0.771097 82.1339 1.31349 79.4028 3.48486C77.399 5.07798 75.3364 6.71782 71.3338 7.0076C66.4946 7.35797 64.0124 5.45393 61.521 3.54282C58.3885 1.13995 55.2414 -1.27411 47.3764 0.767541C41.3817 2.32367 32.6618 9.39344 24.0663 16.3624C14.6432 24.0023 5.36955 31.521 0 31.521C4.16734 39.3764 13.5563 55.0787 29.553 59.9728C40.0425 65.99 52.4171 69.9455 67.4768 71.1158C78.4909 71.3889 98.9311 68.8872 107.297 63.9087C120.146 58.6207 128.529 48.3453 135.904 39.3054ZM140.653 32.4867C138.745 32.1919 136.858 32.234 134.931 32.5292C137.136 32.7155 139.029 32.7268 140.653 32.4867ZM2.94393 32.4091C6.26152 32.6813 11.0751 34.3006 17.2551 36.3797C30.4408 40.8156 49.8466 47.344 74.2131 47.344C96.8205 47.344 110.742 41.5311 121.285 37.1285C126.433 34.979 130.775 33.1658 134.931 32.5292C131.675 32.2542 127.741 31.5978 122.997 30.8062C111.494 28.8868 95.2255 26.1724 72.3117 26.1724C46.9881 26.1724 28.8309 28.8671 16.2399 30.7358C10.8186 31.5404 6.42916 32.1919 2.94393 32.4091ZM2.94393 32.4091C2.07906 32.3382 1.31586 32.3588 0.65663 32.4867C1.37119 32.4867 2.13309 32.4597 2.94393 32.4091Z"/>
</mask>
<path fill-rule="evenodd" clip-rule="evenodd" d="M135.904 39.3054C138.164 36.5349 140.329 33.8803 142.5 31.521C135.318 30.7309 126.164 23.5048 116.936 16.2211C108.155 9.28968 99.3076 2.30614 92.0318 0.767535C84.7559 -0.771097 82.1339 1.31349 79.4028 3.48486C77.399 5.07798 75.3364 6.71782 71.3338 7.0076C66.4946 7.35797 64.0124 5.45393 61.521 3.54282C58.3885 1.13995 55.2414 -1.27411 47.3764 0.767541C41.3817 2.32367 32.6618 9.39344 24.0663 16.3624C14.6432 24.0023 5.36955 31.521 0 31.521C4.16734 39.3764 13.5563 55.0787 29.553 59.9728C40.0425 65.99 52.4171 69.9455 67.4768 71.1158C78.4909 71.3889 98.9311 68.8872 107.297 63.9087C120.146 58.6207 128.529 48.3453 135.904 39.3054ZM140.653 32.4867C138.745 32.1919 136.858 32.234 134.931 32.5292C137.136 32.7155 139.029 32.7268 140.653 32.4867ZM2.94393 32.4091C6.26152 32.6813 11.0751 34.3006 17.2551 36.3797C30.4408 40.8156 49.8466 47.344 74.2131 47.344C96.8205 47.344 110.742 41.5311 121.285 37.1285C126.433 34.979 130.775 33.1658 134.931 32.5292C131.675 32.2542 127.741 31.5978 122.997 30.8062C111.494 28.8868 95.2255 26.1724 72.3117 26.1724C46.9881 26.1724 28.8309 28.8671 16.2399 30.7358C10.8186 31.5404 6.42916 32.1919 2.94393 32.4091ZM2.94393 32.4091C2.07906 32.3382 1.31586 32.3588 0.65663 32.4867C1.37119 32.4867 2.13309 32.4597 2.94393 32.4091Z" fill="black"/>
<path d="M142.5 31.521L143.236 32.198L144.574 30.7432L142.609 30.527L142.5 31.521ZM135.904 39.3054L135.129 38.6733L135.904 39.3054ZM116.936 16.2211L117.556 15.4362L116.936 16.2211ZM92.0318 0.767535L92.2387 -0.210828V-0.210828L92.0318 0.767535ZM79.4028 3.48486L78.7804 2.7021V2.7021L79.4028 3.48486ZM71.3338 7.0076L71.4061 8.00499L71.3338 7.0076ZM61.521 3.54282L62.1296 2.74938V2.74938L61.521 3.54282ZM47.3764 0.767541L47.6277 1.73546L47.3764 0.767541ZM24.0663 16.3624L24.6961 17.1391L24.0663 16.3624ZM0 31.521V30.521H-1.66251L-0.883389 31.9896L0 31.521ZM29.553 59.9728L30.0505 59.1054L29.953 59.0494L29.8455 59.0165L29.553 59.9728ZM67.4768 71.1158L67.3993 72.1128L67.4256 72.1148L67.452 72.1155L67.4768 71.1158ZM107.297 63.9087L106.917 62.984L106.849 63.0119L106.786 63.0493L107.297 63.9087ZM140.653 32.4867L140.799 33.476L140.806 31.4984L140.653 32.4867ZM17.2551 36.3797L16.9363 37.3275L17.2551 36.3797ZM121.285 37.1285L121.67 38.0513L121.285 37.1285ZM122.997 30.8062L123.162 29.8199L122.997 30.8062ZM16.2399 30.7358L16.3867 31.725L16.2399 30.7358ZM0.65663 32.4867L0.466162 31.505L0.65663 33.4867V32.4867ZM141.764 30.844C139.57 33.2292 137.385 35.9079 135.129 38.6733L136.678 39.9376C138.943 37.1618 141.089 34.5314 143.236 32.198L141.764 30.844ZM116.317 17.006C120.921 20.6404 125.555 24.2991 129.941 27.145C134.306 29.977 138.555 32.093 142.391 32.515L142.609 30.527C139.263 30.1588 135.344 28.2667 131.03 25.4672C126.736 22.6816 122.179 19.0855 117.556 15.4362L116.317 17.006ZM91.8249 1.7459C95.272 2.47487 99.174 4.5182 103.366 7.30479C107.544 10.0826 111.918 13.5342 116.317 17.006L117.556 15.4362C113.173 11.9766 108.732 8.47075 104.473 5.63924C100.227 2.81656 96.0673 0.598815 92.2387 -0.210828L91.8249 1.7459ZM80.0251 4.26761C81.4005 3.17409 82.6062 2.22629 84.3133 1.68879C86.0087 1.15497 88.2997 1.00043 91.8249 1.7459L92.2387 -0.210828C88.4879 -1.00399 85.83 -0.885547 83.7127 -0.218889C81.607 0.444084 80.1361 1.62426 78.7804 2.7021L80.0251 4.26761ZM71.4061 8.00499C75.7252 7.69229 77.9894 5.88612 80.0251 4.26761L78.7804 2.7021C76.8086 4.26985 74.9476 5.74335 71.2616 6.01021L71.4061 8.00499ZM60.9123 4.33627C62.1462 5.28272 63.4815 6.31252 65.1468 7.0397C66.8374 7.77795 68.8305 8.19147 71.4061 8.00499L71.2616 6.01021C68.9979 6.17411 67.3303 5.81079 65.9471 5.20683C64.5387 4.59181 63.3872 3.71404 62.1296 2.74938L60.9123 4.33627ZM47.6277 1.73546C51.4326 0.747749 53.993 0.863204 55.936 1.44628C57.8986 2.03529 59.3343 3.1258 60.9123 4.33627L62.1296 2.74938C60.5752 1.55698 58.8711 0.239014 56.5108 -0.469312C54.1308 -1.18357 51.1852 -1.25432 47.1251 -0.200379L47.6277 1.73546ZM24.6961 17.1391C29.0005 13.6493 33.3025 10.1619 37.2743 7.35146C41.2706 4.52366 44.8211 2.46401 47.6277 1.73546L47.1251 -0.200379C43.937 0.627206 40.1302 2.8805 36.119 5.71885C32.0833 8.57453 27.7277 12.1065 23.4365 15.5856L24.6961 17.1391ZM0 32.521C1.55471 32.521 3.29629 31.983 5.12232 31.1335C6.96247 30.2774 8.9693 29.0661 11.0755 27.6335C15.2849 24.7703 19.9943 20.9512 24.6961 17.1391L23.4365 15.5856C18.7152 19.4135 14.0762 23.1736 9.95065 25.9798C7.88934 27.3819 5.98202 28.5277 4.2787 29.3202C2.56126 30.1191 1.13007 30.521 0 30.521V32.521ZM29.8455 59.0165C14.2785 54.2539 5.05313 38.9123 0.883389 31.0524L-0.883389 31.9896C3.28155 39.8406 12.8341 55.9035 29.2604 60.929L29.8455 59.0165ZM67.5542 70.1188C52.632 68.9592 40.4026 65.0437 30.0505 59.1054L29.0554 60.8402C39.6824 66.9363 52.2022 70.9319 67.3993 72.1128L67.5542 70.1188ZM106.786 63.0493C102.778 65.4342 95.7412 67.2827 88.2209 68.4943C80.7373 69.7 72.9361 70.2508 67.5015 70.1161L67.452 72.1155C73.0315 72.2538 80.9575 71.6903 88.539 70.4689C96.0839 69.2533 103.45 67.3617 107.809 64.7681L106.786 63.0493ZM135.129 38.6733C127.733 47.7385 119.497 57.8064 106.917 62.984L107.678 64.8334C120.795 59.4351 129.324 48.9522 136.678 39.9376L135.129 38.6733ZM140.806 31.4984C138.781 31.1857 136.791 31.2326 134.779 31.5407L135.082 33.5177C136.925 33.2354 138.708 33.198 140.5 33.475L140.806 31.4984ZM134.846 33.5256C137.088 33.715 139.067 33.7321 140.799 33.476L140.507 31.4975C138.991 31.7216 137.184 31.716 135.015 31.5327L134.846 33.5256ZM17.574 35.4319C11.4549 33.3733 6.49639 31.6972 3.02568 31.4125L2.86217 33.4058C6.02664 33.6653 10.6954 35.228 16.9363 37.3275L17.574 35.4319ZM74.2131 46.344C50.0237 46.344 30.753 39.8655 17.574 35.4319L16.9363 37.3275C30.1287 41.7657 49.6696 48.344 74.2131 48.344V46.344ZM120.9 36.2057C110.393 40.5929 96.6197 46.344 74.2131 46.344V48.344C97.0214 48.344 111.09 42.4693 121.67 38.0513L120.9 36.2057ZM134.779 31.5407C130.478 32.1996 126.013 34.0704 120.9 36.2057L121.67 38.0513C126.852 35.8877 131.073 34.1319 135.082 33.5177L134.779 31.5407ZM122.833 31.7926C127.562 32.5818 131.542 33.2464 134.846 33.5256L135.015 31.5327C131.809 31.2619 127.92 30.6138 123.162 29.8199L122.833 31.7926ZM72.3117 27.1724C95.1404 27.1724 111.343 29.8754 122.833 31.7926L123.162 29.8199C111.645 27.8981 95.3105 25.1724 72.3117 25.1724V27.1724ZM16.3867 31.725C28.9657 29.8581 47.0639 27.1724 72.3117 27.1724V25.1724C46.9123 25.1724 28.6962 27.8762 16.0931 29.7467L16.3867 31.725ZM3.00614 33.4072C6.54369 33.1867 10.9819 32.5271 16.3867 31.725L16.0931 29.7467C10.6552 30.5537 6.31464 31.1971 2.88171 31.4111L3.00614 33.4072ZM3.02568 31.4125C2.10279 31.3368 1.24256 31.3544 0.466162 31.505L0.847097 33.4684C1.38916 33.3632 2.05532 33.3396 2.86217 33.4058L3.02568 31.4125ZM0.65663 33.4867C1.39596 33.4867 2.17903 33.4587 3.00614 33.4072L2.88171 31.4111C2.08715 31.4606 1.34642 31.4867 0.65663 31.4867V33.4867Z" fill="black" mask="url(#path-1-inside-1_6_19)"/>
</svg>
