<svg width="48" height="58" viewBox="0 0 48 58" fill="none" xmlns="http://www.w3.org/2000/svg">
<mask id="path-1-inside-1_4_9" fill="white">
<path d="M35.7945 18.5997C37.8581 28.2843 32.3545 37.6643 23.5019 39.5506C14.6493 41.4369 5.79997 35.1152 3.73641 25.4306C1.67285 15.7461 7.17645 6.36603 16.029 4.47974C24.8816 2.59345 33.7309 8.91519 35.7945 18.5997ZM8.07497 24.5062C9.57999 31.5694 16.0341 36.18 22.4905 34.8043C28.947 33.4286 32.961 26.5874 31.4559 19.5242C29.9509 12.4609 23.4968 7.85031 17.0404 9.22604C10.5839 10.6018 6.56995 17.4429 8.07497 24.5062Z"/>
</mask>
<path d="M35.7945 18.5997C37.8581 28.2843 32.3545 37.6643 23.5019 39.5506C14.6493 41.4369 5.79997 35.1152 3.73641 25.4306C1.67285 15.7461 7.17645 6.36603 16.029 4.47974C24.8816 2.59345 33.7309 8.91519 35.7945 18.5997ZM8.07497 24.5062C9.57999 31.5694 16.0341 36.18 22.4905 34.8043C28.947 33.4286 32.961 26.5874 31.4559 19.5242C29.9509 12.4609 23.4968 7.85031 17.0404 9.22604C10.5839 10.6018 6.56995 17.4429 8.07497 24.5062Z" fill="#170101" fill-opacity="0.99" stroke="black" stroke-width="20" mask="url(#path-1-inside-1_4_9)"/>
<rect width="20.6881" height="4.85563" transform="matrix(0.720051 0.693921 -0.584628 0.811301 32.0153 31.9124)" fill="#010000"/>
</svg>
